<svg width="180" height="53" viewBox="0 0 180 53" fill="none" xmlns="http://www.w3.org/2000/svg">
<rect x="5" y="3" width="20" height="44" fill="#A3E1BD"/>
<g filter="url(#filter0_d_1_14)">
<path d="M5 3H29V27H5V3Z" fill="#7AD39E"/>
<path d="M41 15C41 21.6274 35.6274 27 29 27C22.3726 27 17 21.6274 17 15C17 8.37258 22.3726 3 29 3C35.6274 3 41 8.37258 41 15Z" fill="#7AD39E"/>
</g>
<path d="M29.248 47V36.392C29.248 35.784 29.4 35.232 29.704 34.736C30.008 34.24 30.408 33.84 30.904 33.536C31.416 33.232 31.968 33.08 32.56 33.08H40.288V36.224H32.68C32.6 36.224 32.528 36.256 32.464 36.32C32.416 36.368 32.392 36.432 32.392 36.512V47H29.248ZM46.3219 47C45.7139 47 45.1619 46.848 44.6659 46.544C44.1699 46.24 43.7699 45.84 43.4659 45.344C43.1619 44.848 43.0099 44.296 43.0099 43.688V36.392C43.0099 35.784 43.1619 35.232 43.4659 34.736C43.7699 34.24 44.1699 33.84 44.6659 33.536C45.1619 33.232 45.7139 33.08 46.3219 33.08H53.8339C54.4419 33.08 54.9939 33.232 55.4899 33.536C56.0019 33.84 56.4019 34.24 56.6899 34.736C56.9939 35.232 57.1459 35.784 57.1459 36.392V43.688C57.1459 44.296 56.9939 44.848 56.6899 45.344C56.4019 45.84 56.0099 46.24 55.5139 46.544C55.0179 46.848 54.4579 47 53.8339 47H46.3219ZM46.4419 43.856H53.7139C53.7939 43.856 53.8579 43.832 53.9059 43.784C53.9699 43.72 54.0019 43.648 54.0019 43.568V36.512C54.0019 36.432 53.9699 36.368 53.9059 36.32C53.8579 36.256 53.7939 36.224 53.7139 36.224H46.4419C46.3619 36.224 46.2899 36.256 46.2259 36.32C46.1779 36.368 46.1539 36.432 46.1539 36.512V43.568C46.1539 43.648 46.1779 43.72 46.2259 43.784C46.2899 43.832 46.3619 43.856 46.4419 43.856ZM60.004 47V46.16L65.116 39.92L60.004 33.92V33.08H63.412L67.156 37.496L70.9 33.08H74.308V33.92L69.196 39.92L74.308 46.16V47H70.924L67.156 42.392L63.412 47H60.004ZM80.0532 52.16V48.992H88.4292C88.5092 48.992 88.5732 48.96 88.6212 48.896C88.6852 48.848 88.7172 48.784 88.7172 48.704V47H81.0372C80.4452 47 79.8932 46.848 79.3812 46.544C78.8852 46.24 78.4852 45.84 78.1812 45.344C77.8772 44.848 77.7252 44.296 77.7252 43.688V33.128H80.8692V43.568C80.8692 43.648 80.8932 43.72 80.9412 43.784C81.0052 43.832 81.0772 43.856 81.1572 43.856H88.4292C88.5092 43.856 88.5732 43.832 88.6212 43.784C88.6852 43.72 88.7172 43.648 88.7172 43.568V33.128H91.8612V48.848C91.8612 49.456 91.7172 50.008 91.4292 50.504C91.1412 51.016 90.7412 51.416 90.2292 51.704C89.7332 52.008 89.1812 52.16 88.5732 52.16H80.0532Z" fill="#A3E1BD"/>
<path d="M102.507 47L94.8509 33.08H98.4749L103.971 43.184L109.443 33.08H113.067L105.387 47H102.507ZM118.317 47C117.709 47 117.157 46.848 116.661 46.544C116.165 46.24 115.765 45.84 115.461 45.344C115.157 44.848 115.005 44.296 115.005 43.688V36.392C115.005 35.784 115.157 35.232 115.461 34.736C115.765 34.24 116.165 33.84 116.661 33.536C117.157 33.232 117.709 33.08 118.317 33.08H125.829C126.437 33.08 126.989 33.232 127.485 33.536C127.997 33.84 128.397 34.24 128.685 34.736C128.989 35.232 129.141 35.784 129.141 36.392V41.624H118.149V43.568C118.149 43.648 118.173 43.72 118.221 43.784C118.285 43.832 118.357 43.856 118.437 43.856H129.141V47H118.317ZM118.149 38.792H125.997V36.512C125.997 36.432 125.965 36.368 125.901 36.32C125.853 36.256 125.789 36.224 125.709 36.224H118.437C118.357 36.224 118.285 36.256 118.221 36.32C118.173 36.368 118.149 36.432 118.149 36.512V38.792ZM132.706 47V36.392C132.706 35.784 132.858 35.232 133.162 34.736C133.466 34.24 133.866 33.84 134.362 33.536C134.874 33.232 135.426 33.08 136.018 33.08H143.746V36.224H136.138C136.058 36.224 135.986 36.256 135.922 36.32C135.874 36.368 135.85 36.432 135.85 36.512V47H132.706ZM149.989 47C149.381 47 148.829 46.848 148.333 46.544C147.837 46.24 147.437 45.84 147.133 45.344C146.829 44.848 146.677 44.296 146.677 43.688V43.16H149.821V43.568C149.821 43.648 149.845 43.72 149.893 43.784C149.957 43.832 150.029 43.856 150.109 43.856H157.381C157.461 43.856 157.525 43.832 157.573 43.784C157.637 43.72 157.669 43.648 157.669 43.568V41.912C157.669 41.832 157.637 41.768 157.573 41.72C157.525 41.656 157.461 41.624 157.381 41.624H149.989C149.381 41.624 148.829 41.472 148.333 41.168C147.837 40.864 147.437 40.464 147.133 39.968C146.829 39.472 146.677 38.92 146.677 38.312V36.392C146.677 35.784 146.829 35.232 147.133 34.736C147.437 34.24 147.837 33.84 148.333 33.536C148.829 33.232 149.381 33.08 149.989 33.08H157.501C158.125 33.08 158.685 33.232 159.181 33.536C159.677 33.84 160.077 34.24 160.381 34.736C160.685 35.232 160.837 35.784 160.837 36.392V36.92H157.669V36.512C157.669 36.432 157.637 36.368 157.573 36.32C157.525 36.256 157.461 36.224 157.381 36.224H150.109C150.029 36.224 149.957 36.256 149.893 36.32C149.845 36.368 149.821 36.432 149.821 36.512V38.168C149.821 38.248 149.845 38.32 149.893 38.384C149.957 38.432 150.029 38.456 150.109 38.456H157.501C158.125 38.456 158.685 38.608 159.181 38.912C159.677 39.216 160.077 39.616 160.381 40.112C160.685 40.608 160.837 41.16 160.837 41.768V43.688C160.837 44.296 160.685 44.848 160.381 45.344C160.077 45.84 159.677 46.24 159.181 46.544C158.685 46.848 158.125 47 157.501 47H149.989ZM167.269 47C166.661 47 166.109 46.848 165.613 46.544C165.117 46.24 164.717 45.84 164.413 45.344C164.109 44.848 163.957 44.296 163.957 43.688V36.392C163.957 35.784 164.109 35.232 164.413 34.736C164.717 34.24 165.117 33.84 165.613 33.536C166.109 33.232 166.661 33.08 167.269 33.08H174.781C175.389 33.08 175.941 33.232 176.437 33.536C176.949 33.84 177.349 34.24 177.637 34.736C177.941 35.232 178.093 35.784 178.093 36.392V41.624H167.101V43.568C167.101 43.648 167.125 43.72 167.173 43.784C167.237 43.832 167.309 43.856 167.389 43.856H178.093V47H167.269ZM167.101 38.792H174.949V36.512C174.949 36.432 174.917 36.368 174.853 36.32C174.805 36.256 174.741 36.224 174.661 36.224H167.389C167.309 36.224 167.237 36.256 167.173 36.32C167.125 36.368 167.101 36.432 167.101 36.512V38.792Z" fill="#BDBDBD"/>
<defs>
<filter id="filter0_d_1_14" x="0" y="0" width="46" height="34" filterUnits="userSpaceOnUse" color-interpolation-filters="sRGB">
<feFlood flood-opacity="0" result="BackgroundImageFix"/>
<feColorMatrix in="SourceAlpha" type="matrix" values="0 0 0 0 0 0 0 0 0 0 0 0 0 0 0 0 0 0 127 0" result="hardAlpha"/>
<feOffset dy="2"/>
<feGaussianBlur stdDeviation="2.5"/>
<feComposite in2="hardAlpha" operator="out"/>
<feColorMatrix type="matrix" values="0 0 0 0 0 0 0 0 0 0 0 0 0 0 0 0 0 0 0.25 0"/>
<feBlend mode="normal" in2="BackgroundImageFix" result="effect1_dropShadow_1_14"/>
<feBlend mode="normal" in="SourceGraphic" in2="effect1_dropShadow_1_14" result="shape"/>
</filter>
</defs>
</svg>
